<svg xmlns="http://www.w3.org/2000/svg" width="24.576" height="20.396" viewBox="0 0 24.576 20.396">
  <path id="Icon_simple-wechat" data-name="Icon simple-wechat" d="M24.105,14.025A6.772,6.772,0,0,0,20.939,10.8a8.715,8.715,0,0,0-7.812.031,6.478,6.478,0,0,0-3.46,4.262,5.474,5.474,0,0,0,.7,4.056,7.478,7.478,0,0,0,5.09,3.326,9.373,9.373,0,0,0,4.442-.292c.862.334,1.63.874,2.466,1.276-.216-.724-.446-1.44-.692-2.152a6.96,6.96,0,0,0,2.3-2.538A5.5,5.5,0,0,0,24.105,14.025ZM13.943,4.332a10.357,10.357,0,0,0-8.485-.66,8.634,8.634,0,0,0-4.45,3.5A6.568,6.568,0,0,0,.19,12.209a7.711,7.711,0,0,0,3.34,4.519c-.307.87-.6,1.74-.876,2.616,1-.522,2-1.068,3-1.6a11.122,11.122,0,0,0,3.748.53,6.307,6.307,0,0,1-.261-3.022,6.412,6.412,0,0,1,2.042-3.639,8.855,8.855,0,0,1,6.652-2.182,7.751,7.751,0,0,0-3.916-5.1h.028Zm1.775,10.229a1.008,1.008,0,1,1-1.29-1.3,1.019,1.019,0,0,1,1.29,1.3Zm4.91.094a1.03,1.03,0,0,1-1.614.276,1.533,1.533,0,0,1-.352-.748,1.133,1.133,0,0,1,.952-.978,1.026,1.026,0,0,1,1,1.45h.015ZM13.3,8.046a1.481,1.481,0,1,1,0-.012l0,.012ZM7.1,8.3A1.258,1.258,0,1,1,5.457,6.808,1.265,1.265,0,0,1,7.1,8.3Z" transform="translate(0.001 -3.061)" fill="#fff"/>
</svg>
