<svg xmlns="http://www.w3.org/2000/svg" width="26.214" height="18.432" viewBox="0 0 26.214 18.432">
  <path id="Icon_awesome-youtube" data-name="Icon awesome-youtube" d="M26.716,7.384A3.294,3.294,0,0,0,24.4,5.051C22.354,4.5,14.157,4.5,14.157,4.5s-8.2,0-10.242.551A3.294,3.294,0,0,0,1.6,7.384a34.554,34.554,0,0,0-.548,6.351A34.554,34.554,0,0,0,1.6,20.085a3.245,3.245,0,0,0,2.318,2.3c2.044.551,10.242.551,10.242.551s8.2,0,10.242-.551a3.245,3.245,0,0,0,2.318-2.3,34.554,34.554,0,0,0,.548-6.351,34.554,34.554,0,0,0-.548-6.351ZM11.476,17.632v-7.8l6.851,3.9-6.851,3.9Z" transform="translate(-1.05 -4.5)" fill="#fff"/>
</svg>
