<svg xmlns="http://www.w3.org/2000/svg" width="21.504" height="21.504" viewBox="0 0 21.504 21.504">
  <path id="Icon_awesome-linkedin" data-name="Icon awesome-linkedin" d="M19.968,2.25H1.531A1.543,1.543,0,0,0,0,3.8V22.2a1.543,1.543,0,0,0,1.531,1.55H19.968A1.547,1.547,0,0,0,21.5,22.2V3.8A1.547,1.547,0,0,0,19.968,2.25ZM6.5,20.682H3.312V10.42H6.5V20.682ZM4.906,9.018A1.848,1.848,0,1,1,6.753,7.17,1.849,1.849,0,0,1,4.906,9.018ZM18.446,20.682H15.259V15.69c0-1.19-.024-2.722-1.656-2.722-1.661,0-1.915,1.3-1.915,2.635v5.078H8.5V10.42h3.058v1.4H11.6a3.357,3.357,0,0,1,3.019-1.656c3.226,0,3.826,2.126,3.826,4.891Z" transform="translate(0 -2.25)" fill="#fff"/>
</svg>
