<svg xmlns="http://www.w3.org/2000/svg" width="21.516" height="21.511" viewBox="0 0 21.516 21.511">
  <path id="Icon_awesome-instagram" data-name="Icon awesome-instagram" d="M10.755,7.478a5.515,5.515,0,1,0,5.515,5.515A5.506,5.506,0,0,0,10.755,7.478Zm0,9.1a3.586,3.586,0,1,1,3.586-3.586A3.592,3.592,0,0,1,10.755,16.579Zm7.027-9.326A1.286,1.286,0,1,1,16.5,5.966,1.283,1.283,0,0,1,17.782,7.252Zm3.653,1.306A6.366,6.366,0,0,0,19.7,4.051,6.408,6.408,0,0,0,15.19,2.313c-1.776-.1-7.1-.1-8.875,0A6.4,6.4,0,0,0,1.808,4.046,6.387,6.387,0,0,0,.07,8.553c-.1,1.776-.1,7.1,0,8.875a6.366,6.366,0,0,0,1.738,4.507,6.416,6.416,0,0,0,4.507,1.738c1.776.1,7.1.1,8.875,0A6.366,6.366,0,0,0,19.7,21.936a6.408,6.408,0,0,0,1.738-4.507c.1-1.776.1-7.094,0-8.87ZM19.14,19.334A3.63,3.63,0,0,1,17.1,21.379c-1.416.562-4.776.432-6.341.432s-4.93.125-6.341-.432a3.63,3.63,0,0,1-2.045-2.045c-.562-1.416-.432-4.776-.432-6.341s-.125-4.93.432-6.341A3.63,3.63,0,0,1,4.414,4.608c1.416-.562,4.776-.432,6.341-.432s4.93-.125,6.341.432A3.63,3.63,0,0,1,19.14,6.652c.562,1.416.432,4.776.432,6.341S19.7,17.923,19.14,19.334Z" transform="translate(0.005 -2.238)" fill="#fff"/>
</svg>
