<svg xmlns="http://www.w3.org/2000/svg" width="21.504" height="21.504" viewBox="0 0 21.504 21.504">
  <path id="Icon_awesome-facebook-square" data-name="Icon awesome-facebook-square" d="M19.2,2.25H2.3A2.3,2.3,0,0,0,0,4.554v16.9a2.3,2.3,0,0,0,2.3,2.3H8.892V16.443H5.868V13H8.892V10.379c0-2.983,1.776-4.631,4.5-4.631a18.319,18.319,0,0,1,2.665.232V8.909h-1.5a1.721,1.721,0,0,0-1.94,1.859V13h3.3l-.528,3.441H12.612v7.311H19.2a2.3,2.3,0,0,0,2.3-2.3V4.554A2.3,2.3,0,0,0,19.2,2.25Z" transform="translate(0 -2.25)" fill="#fff"/>
</svg>
