<svg xmlns="http://www.w3.org/2000/svg" xmlns:xlink="http://www.w3.org/1999/xlink" width="266.778" height="25.478" viewBox="0 0 266.778 25.478">
  <defs>
    <clipPath id="clip-path">
      <rect id="Rectangle_142" data-name="Rectangle 142" width="266.778" height="25.478" fill="none"/>
    </clipPath>
  </defs>
  <g id="Group_753" data-name="Group 753" transform="translate(0 0)">
    <path id="Path_29" data-name="Path 29" d="M0,.631V4.923H.175L5.026,1.957H8.132V23.072L6.283,24.887v.174h7.294v-.174l-1.85-1.815V1.957h3.385l4.573,2.966h.173V.631Z" transform="translate(0 -0.107)"/>
    <path id="Path_30" data-name="Path 30" d="M44.078.631V.806l1.849,1.815v9.352H33.119V2.621L34.969.806V.631h-7.3V.806l1.851,1.815V23.072l-1.851,1.815v.174h7.3v-.174l-1.85-1.815v-9.7H45.927v9.7l-1.849,1.815v.174h7.294v-.174l-1.851-1.815V2.621L51.372.806V.631Z" transform="translate(-4.707 -0.107)"/>
    <path id="Path_31" data-name="Path 31" d="M61.615.631V.806l1.85,1.815V23.072l-1.85,1.815v.174H79.31V20.384h-.174l-4.921,3.35H67.059V12.881h6.527l3.038,2.2H76.8V9.356h-.173l-3.038,2.2H67.059v-9.6h6.667L78.3,4.749h.174V.631Z" transform="translate(-10.479 -0.107)"/>
    <g id="Group_752" data-name="Group 752" transform="translate(0 0)">
      <g id="Group_751" data-name="Group 751" clip-path="url(#clip-path)">
        <path id="Path_32" data-name="Path 32" d="M106.829,23.8V19.789H107l5.41,4.083a6,6,0,0,0,2.093.349,5.033,5.033,0,0,0,5.306-5.13c0-6.039-12.111-4.746-12.111-12.46C107.7,2.757,111.087,0,115.834,0c2.408,0,5.13.593,6.038,1.361V4.955H121.7l-4.573-3.49a4.605,4.605,0,0,0-1.57-.21c-2.827,0-4.642,1.641-4.642,4.154,0,6.107,12.111,4.851,12.111,12.529,0,4.327-3.839,7.539-9.109,7.539a14.619,14.619,0,0,1-7.085-1.676" transform="translate(-18.169 0)"/>
        <path id="Path_33" data-name="Path 33" d="M138.423,25.061H137.2L130.187,2.62,128.826.805V.631h6.945V.805l-1.71,1.815,5.025,16.788,5.026-13.437-1.117-3.35L141.634.805V.631h6.875V.805L146.834,2.62,152.313,19.3l4.608-16.054L154.2.805V.631h6.038V.805l-1.605,2.478-6.7,21.778h-1.4L144.88,8.239Z" transform="translate(-21.91 -0.107)"/>
        <path id="Path_34" data-name="Path 34" d="M187.331,25.061h-6.91v-.174l1.675-1.815-1.989-4.99H169.88l-1.71,4.362,2.757,2.443v.174h-6.142v-.174l1.64-2.478L174,3.527,172.847.805V.631h4.083l9.04,22.441,1.361,1.815ZM174.906,5.168l-4.5,11.587h9.144Z" transform="translate(-28.026 -0.107)"/>
        <path id="Path_35" data-name="Path 35" d="M202.235,25.061h-7.294v-.174l1.85-1.815V2.62L194.941.805V.631h7.294V.805l-1.85,1.815V23.072l1.85,1.815Z" transform="translate(-33.155 -0.107)"/>
        <path id="Path_36" data-name="Path 36" d="M228.553,25.061h-1.117L212.6,4.434V22.409l2.618,2.478v.174h-6.143v-.174l1.85-2.478V2.725L208.9.805V.631h5.375l12.6,17.555V3.283L224.225.805V.631H230.4V.805l-1.85,2.478Z" transform="translate(-35.53 -0.107)"/>
        <path id="Path_37" data-name="Path 37" d="M239.649,23.8V19.789h.174l5.41,4.083a6,6,0,0,0,2.093.349,5.033,5.033,0,0,0,5.306-5.13c0-6.039-12.111-4.746-12.111-12.46,0-3.874,3.385-6.631,8.132-6.631,2.408,0,5.13.593,6.038,1.361V4.955h-.174l-4.573-3.49a4.606,4.606,0,0,0-1.57-.21c-2.827,0-4.642,1.641-4.642,4.154,0,6.107,12.111,4.851,12.111,12.529,0,4.327-3.839,7.539-9.109,7.539a14.619,14.619,0,0,1-7.085-1.676" transform="translate(-40.759 0)"/>
        <path id="Path_38" data-name="Path 38" d="M263.5,12.879C263.5,5.026,268.627,0,275.083,0c6.526,0,11.168,5.1,11.168,12.6,0,7.818-5.131,12.879-11.622,12.879s-11.133-5.1-11.133-12.6m18.847.453c0-7.364-3-11.936-7.853-11.936-4.5,0-7.12,3.8-7.12,10.749,0,7.364,3.037,11.937,7.888,11.937,4.467,0,7.085-3.8,7.085-10.75" transform="translate(-44.815 0)"/>
        <path id="Path_39" data-name="Path 39" d="M315.193,25.061h-1.117L299.243,4.434V22.409l2.618,2.478v.174h-6.143v-.174l1.85-2.478V2.725L295.544.805V.631h5.375l12.6,17.555V3.283L310.865.805V.631h6.178V.805l-1.85,2.478Z" transform="translate(-50.265 -0.107)"/>
      </g>
    </g>
  </g>
</svg>
